<mxfile host="65bd71144e">
    <diagram id="se0_MzARPhzz7LIHcKkH" name="Page-1">
        <mxGraphModel dx="1058" dy="773" grid="1" gridSize="10" guides="1" tooltips="1" connect="1" arrows="1" fold="1" page="1" pageScale="1" pageWidth="1169" pageHeight="827" math="0" shadow="0">
            <root>
                <mxCell id="0"/>
                <mxCell id="1" parent="0"/>
                <mxCell id="2" value="HW Boundary" style="swimlane;whiteSpace=wrap;html=1;" vertex="1" parent="1">
                    <mxGeometry x="80" y="90" width="240" height="240" as="geometry"/>
                </mxCell>
                <mxCell id="3" value="USART_ReadDataDMA()" style="rounded=1;whiteSpace=wrap;html=1;" vertex="1" parent="2">
                    <mxGeometry x="20" y="40" width="200" height="80" as="geometry"/>
                </mxCell>
                <mxCell id="4" value="USART_SendDataDMA()" style="rounded=1;whiteSpace=wrap;html=1;" vertex="1" parent="2">
                    <mxGeometry x="20" y="140" width="200" height="80" as="geometry"/>
                </mxCell>
            </root>
        </mxGraphModel>
    </diagram>
</mxfile>